<svg width="1096" height="1096" viewBox="0 0 1096 1096" fill="none" xmlns="http://www.w3.org/2000/svg">
<path d="M1095 548C1095 548 813.298 578.181 695.74 695.74C578.181 813.298 548 1095 548 1095C548 1095 517.819 813.298 400.26 695.74C282.702 578.181 0.999982 548 0.999982 548C0.999982 548 282.702 517.819 400.26 400.26C517.819 282.702 548 0.999976 548 0.999976C548 0.999976 578.181 282.702 695.74 400.26C813.298 517.819 1095 548 1095 548Z" stroke="#303030" stroke-width="10"/>
<path d="M710 548C710 548 626.571 556.938 591.755 591.755C556.938 626.571 548 710 548 710C548 710 539.062 626.571 504.245 591.755C469.429 556.938 386 548 386 548C386 548 469.429 539.062 504.245 504.245C539.062 469.429 548 386 548 386C548 386 556.938 469.429 591.755 504.245C626.571 539.062 710 548 710 548Z" fill="#F7FF58" stroke="#303030" stroke-width="10"/>
</svg>
